<?xml version="1.0" encoding="iso-8859-1"?>
<!-- Generator: Adobe Illustrator 19.0.0, SVG Export Plug-In . SVG Version: 6.00 Build 0)  -->
<svg xmlns="http://www.w3.org/2000/svg" xmlns:xlink="http://www.w3.org/1999/xlink" version="1.1" id="Layer_1" x="0px" y="0px" viewBox="0 0 512 512" style="enable-background:new 0 0 512 512;" xml:space="preserve" width="512px" height="512px">
<g>
	<g>
		<path d="M123.388,223.779c-5.256-22.765-12.776-37.545-23.666-46.511c-12.653-10.419-29.629-12.984-51.896-7.844    c-22.267,5.14-36.4,14.888-43.206,29.799c-5.858,12.834-6.138,29.414-0.883,52.179c4.694,20.33,15.034,38.184,29.117,50.275    c11.616,9.972,24.693,15.174,37.721,15.174c3.68,0,7.357-0.415,10.996-1.255C114.559,307.982,133.318,266.793,123.388,223.779z     M77.353,297.326c-10.558,2.438-22.026-1.069-32.282-9.875C34,277.946,25.809,263.646,22.009,247.184    c-8.612-37.304-1.033-52.315,30.035-59.488c6.494-1.499,11.86-2.104,16.33-2.104c10.39,0,15.924,3.268,19.428,6.153    c7.535,6.203,13.035,17.722,17.314,36.252C112.72,260.936,100.266,292.036,77.353,297.326z" fill="#2c3e50"/>
	</g>
</g>
<g>
	<g>
		<path d="M186.409,73.74c-22.993,0-39.02,6.796-48.999,20.778c-8.576,12.014-12.4,28.609-12.4,53.808    c0,47.918,26.97,85.453,61.399,85.453s61.398-37.536,61.398-85.453C247.807,113.6,240.829,73.74,186.409,73.74z M186.409,215.027    c-23.118,0-42.647-30.546-42.647-66.701c0-41.745,10.761-55.833,42.647-55.833c31.885,0,42.646,14.088,42.646,55.833    C229.055,184.481,209.526,215.027,186.409,215.027z" fill="#2c3e50"/>
	</g>
</g>
<g>
	<g>
		<path d="M319.621,281.287c-21.353-24.281-48.301-38.776-72.088-38.776c-23.787,0-50.736,14.496-72.088,38.776    c-23.045,26.206-35.737,58.92-35.737,92.117c0,38.773,7.112,65.242,22.382,83.298c17.205,20.344,45.154,30.233,85.444,30.233    c40.291,0,68.239-9.889,85.443-30.233c15.271-18.056,22.383-44.525,22.383-83.298    C355.358,340.208,342.666,307.493,319.621,281.287z M318.657,444.594c-13.423,15.873-36.689,23.589-71.125,23.589    s-57.701-7.717-71.125-23.589c-12.245-14.481-17.949-37.102-17.949-71.19c0-63.986,54.035-112.141,89.073-112.141    s89.074,48.155,89.074,112.141C336.606,407.492,330.903,430.113,318.657,444.594z" fill="#2c3e50"/>
	</g>
</g>
<g>
	<g>
		<path d="M341.736,26.071c-22.842-3.622-40.699,2.548-53.078,18.325c-10.388,13.241-17.205,32.937-22.104,63.864    c-4.31,27.214-2.654,53.851,4.665,75.005c8.009,23.152,21.952,37.412,39.259,40.153c1.964,0.311,3.926,0.464,5.884,0.464    c31.962,0,62.643-40.64,71.477-96.411C395.029,82.078,395.173,34.534,341.736,26.071z M369.319,124.537    c-6.242,39.408-29.017,80.615-52.727,80.61c-1.058,0-2.12-0.083-3.179-0.249c-9.996-1.583-18.916-11.703-24.473-27.763    c-6.331-18.295-7.703-41.712-3.866-65.939c4.313-27.228,10.138-44.775,18.336-55.222c6.487-8.268,14.673-12.192,25.875-12.192    c2.954,0,6.12,0.274,9.517,0.812C365.479,48.816,379.024,63.253,369.319,124.537z" fill="#2c3e50"/>
	</g>
</g>
<g>
	<g>
		<path d="M505.873,219.389c-8.272-18.971-24.82-30.176-50.589-34.257c-60.066-9.515-75.514,35.607-82.705,81.001    c-9.373,59.187,13.225,110.292,51.446,116.347c2.462,0.39,4.927,0.582,7.393,0.582c16.648,0,33.212-8.812,47.328-25.364    c15.11-17.72,25.822-42.57,30.162-69.972C513.84,256.59,512.904,235.514,505.873,219.389z M490.387,284.792    c-3.808,24.038-13.009,45.609-25.91,60.738c-11.808,13.847-25.139,20.384-37.517,18.428c-26.908-4.262-43.331-47.719-35.86-94.892    c8.569-54.102,24.604-71.221,61.25-65.413c25.231,3.997,32.82,15.172,36.334,23.231    C494.126,239.367,494.667,257.768,490.387,284.792z" fill="#2c3e50"/>
	</g>
</g>
<g>
</g>
<g>
</g>
<g>
</g>
<g>
</g>
<g>
</g>
<g>
</g>
<g>
</g>
<g>
</g>
<g>
</g>
<g>
</g>
<g>
</g>
<g>
</g>
<g>
</g>
<g>
</g>
<g>
</g>
</svg>
