<?xml version="1.0" encoding="iso-8859-1"?>
<!-- Generator: Adobe Illustrator 19.0.0, SVG Export Plug-In . SVG Version: 6.00 Build 0)  -->
<svg xmlns="http://www.w3.org/2000/svg" xmlns:xlink="http://www.w3.org/1999/xlink" version="1.1" id="Layer_1" x="0px" y="0px" viewBox="0 0 480 480" style="enable-background:new 0 0 480 480;" xml:space="preserve" width="512px" height="512px">
<g>
	<g>
		<g>
			<path d="M470,120H338.938l-64.323-59.965C278.122,54.008,280,47.147,280,40c0-22.056-17.944-40-40-40c-22.056,0-40,17.944-40,40     c0,7.147,1.878,14.008,5.385,20.035L141.062,120H10c-5.523,0-10,4.478-10,10v340c0,5.522,4.477,10,10,10h460     c5.523,0,10-4.478,10-10V130C480,124.478,475.523,120,470,120z M240,20c11.028,0,20,8.972,20,20c0,5.327-2.084,10.345-5.87,14.13     C250.345,57.915,245.327,60,240,60c-5.327,0-10.345-2.085-14.13-5.87C222.084,50.345,220,45.327,220,40     C220,28.972,228.972,20,240,20z M219.415,74.298C225.572,78.014,232.636,80,240,80s14.428-1.986,20.585-5.702L309.608,120     H170.392L219.415,74.298z M445.858,140l-20.001,20H54.143l-20-20H445.858z M321.979,338.969l48.714-27.847L420,331.666v52.685     L321.979,338.969z M420,406.39V420H60v-38.229l164.706-65.883l71.289,33.089L420,406.39z M373.846,290.77     c-2.863-1.193-6.117-0.99-8.809,0.549l-65.319,37.338L229.21,295.93c-2.5-1.161-5.366-1.236-7.924-0.215L60,360.229V180h360v130     L373.846,290.77z M20,154.143l20,20v251.715l-20,20V154.143z M34.143,460l20-20h371.715l20,20H34.143z M460,445.858l-20-20.001     V174.143l20-20V445.858z" fill="#2c3e50"/>
			<path d="M140,200c-24.813,0-45,20.187-45,45s20.187,45,45,45s45-20.187,45-45S164.813,200,140,200z M140,270     c-13.785,0-25-11.215-25-25c0-13.785,11.215-25,25-25c13.785,0,25,11.215,25,25C165,258.785,153.785,270,140,270z" fill="#2c3e50"/>
			<path d="M280,200c-7.678,0-14.688,2.902-20,7.664c-5.312-4.762-12.322-7.664-20-7.664c-16.542,0-30,13.458-30,30h20     c0-5.514,4.486-10,10-10c5.514,0,10,4.486,10,10h20c0-5.514,4.486-10,10-10c5.514,0,10,4.486,10,10h20     C310,213.458,296.542,200,280,200z" fill="#2c3e50"/>
			<path d="M370,240c-7.678,0-14.688,2.902-20,7.664c-5.312-4.762-12.322-7.664-20-7.664c-16.542,0-30,13.458-30,30h20     c0-5.514,4.486-10,10-10c5.514,0,10,4.486,10,10h20c0-5.514,4.486-10,10-10c5.514,0,10,4.486,10,10h20     C400,253.458,386.542,240,370,240z" fill="#2c3e50"/>
		</g>
	</g>
</g>
<g>
</g>
<g>
</g>
<g>
</g>
<g>
</g>
<g>
</g>
<g>
</g>
<g>
</g>
<g>
</g>
<g>
</g>
<g>
</g>
<g>
</g>
<g>
</g>
<g>
</g>
<g>
</g>
<g>
</g>
</svg>
