<?xml version="1.0" encoding="iso-8859-1"?>
<!-- Generator: Adobe Illustrator 19.0.0, SVG Export Plug-In . SVG Version: 6.00 Build 0)  -->
<svg xmlns="http://www.w3.org/2000/svg" xmlns:xlink="http://www.w3.org/1999/xlink" version="1.1" id="Layer_1" x="0px" y="0px" viewBox="0 0 512 512" style="enable-background:new 0 0 512 512;" xml:space="preserve" width="512px" height="512px">
<g>
	<g>
		<path d="M106.229,286.443c-25.131,0-45.577,20.449-45.577,45.585c0,25.132,20.446,45.579,45.577,45.579    c25.141,0,45.595-20.447,45.595-45.579C151.824,306.892,131.37,286.443,106.229,286.443z M106.229,346.511    c-7.984,0-14.481-6.497-14.481-14.483c0-7.988,6.497-14.488,14.481-14.488c7.994,0,14.499,6.499,14.499,14.488    C120.727,340.014,114.223,346.511,106.229,346.511z" fill="#2c3e50"/>
	</g>
</g>
<g>
	<g>
		<path d="M405.754,286.443c-25.131,0-45.577,20.449-45.577,45.585c0,25.132,20.446,45.579,45.577,45.579    c25.141,0,45.593-20.447,45.593-45.579C451.348,306.892,430.895,286.443,405.754,286.443z M405.754,346.511    c-7.985,0-14.481-6.497-14.481-14.483c0-7.988,6.495-14.488,14.481-14.488c7.994,0,14.497,6.499,14.497,14.488    C420.252,340.014,413.747,346.511,405.754,346.511z" fill="#2c3e50"/>
	</g>
</g>
<g>
	<g>
		<path d="M483.578,259.787c12.646-7.915,21.08-21.961,21.08-37.948c0-24.672-20.071-44.743-44.743-44.743h-21.612l-7.194-16.371    c-7.633-17.371-25.598-27.855-44.497-25.934l-11.862,1.207L353.743,82.79c-2.37-6.003-8.472-9.673-14.882-8.961l-49.397,5.493    c-7.849,0.874-13.506,7.944-12.632,15.793s7.95,13.496,15.793,12.632l38.531-4.285l14.032,35.54l-32.739,3.331    c-17.864,1.817-33.049,14.676-37.787,31.995l-12.331,45.085h-27.086l-22.016-35.653c-5.964-9.657-15.828-16.135-27.062-17.773    c-133.62-19.464-124.836-18.359-128.807-18.359c-18.86,0-35.136,14.091-37.857,32.775c-3.138,21.531,13.444,32.595,24.418,39.916    c6.442,4.306,12.329,8.469,19.842,14.339C26.266,251.08,0,288.541,0,332.028c0,58.576,47.654,106.231,106.229,106.231    c38.465,0,72.222-20.545,90.871-51.234h117.799c18.645,30.69,52.396,51.234,90.856,51.234    c58.584,0,106.246-47.655,106.246-106.231C512,304.154,501.203,278.758,483.578,259.787z M459.914,208.192    c7.525,0,13.647,6.122,13.647,13.647c0,6.204-4.16,11.454-9.838,13.106l-11.757-26.753H459.914z M106.229,407.163    c-41.429,0-75.133-33.705-75.133-75.135c0-41.591,33.884-75.141,75.133-75.141c40.551,0,75.151,33.393,75.151,75.141    C181.379,373.458,147.667,407.163,106.229,407.163z M209.155,358.423c1.592-6.205,2.631-12.629,3.073-19.214    c38.402,0,38.398,0,87.546,0.002c0.442,6.584,1.48,13.007,3.072,19.211H209.155z M302.24,308.119    c-77.532-0.003-52.808-0.002-92.478-0.002c-10.92-47.278-53.346-82.322-103.532-82.322c-1.376,0-2.743,0.035-4.106,0.087    c-0.115,0-0.227-0.002-0.341,0.003c0.339-0.007-40.605-31.433-40.605-31.433c-4.994-3.331-10.853-7.581-10.333-11.496    c0.515-3.869,3.594-4.733,7.586-4.151l123.248,17.956c2.112,0.307,3.966,1.525,5.087,3.341l26.574,43.032    c2.832,4.587,7.838,7.379,13.229,7.379h47.626c7.008,0,13.148-4.687,14.998-11.446l15.462-56.531    c1.372-5.014,5.767-8.736,10.939-9.262l74.163-7.544c5.457-0.557,10.687,2.514,12.882,7.507l1.697,3.861l22.308,50.762    c-6.933-1.388-13.938-2.067-20.888-2.067C355.481,225.794,313.131,260.945,302.24,308.119z M405.754,407.163    c-41.429,0-75.133-33.705-75.133-75.135c0-41.325,33.6-75.141,75.133-75.141c41.082,0,75.15,33.408,75.15,75.141    C480.904,373.458,447.192,407.163,405.754,407.163z" fill="#2c3e50"/>
	</g>
</g>
<g>
</g>
<g>
</g>
<g>
</g>
<g>
</g>
<g>
</g>
<g>
</g>
<g>
</g>
<g>
</g>
<g>
</g>
<g>
</g>
<g>
</g>
<g>
</g>
<g>
</g>
<g>
</g>
<g>
</g>
</svg>
