<?xml version="1.0" encoding="iso-8859-1"?>
<!-- Generator: Adobe Illustrator 18.0.0, SVG Export Plug-In . SVG Version: 6.00 Build 0)  -->
<!DOCTYPE svg PUBLIC "-//W3C//DTD SVG 1.1//EN" "http://www.w3.org/Graphics/SVG/1.1/DTD/svg11.dtd">
<svg xmlns="http://www.w3.org/2000/svg" xmlns:xlink="http://www.w3.org/1999/xlink" version="1.1" id="Capa_1" x="0px" y="0px" viewBox="0 0 492.843 492.843" style="enable-background:new 0 0 492.843 492.843;" xml:space="preserve" width="512px" height="512px">
<path d="M490.245,136.454l-56.813-54.819V32.078c0-4.694-3.806-8.5-8.5-8.5c-4.694,0-8.5,3.806-8.5,8.5v34.033  c-16.293-12.034-36.449-19.162-58.247-19.162c-21.798,0-41.954,7.128-58.247,19.162V32.078c0-4.694-3.806-8.5-8.5-8.5  s-8.5,3.806-8.5,8.5v46.796l-59.499,57.58c-2.232,2.154-3.113,5.353-2.3,8.346c0.565,2.079,5.947,20.423,20.814,24.379  c1.841,0.49,3.702,0.734,5.582,0.734c4.143,0,8.375-1.199,12.674-3.566v13.029H163.39c-26.978,0-51.706,9.851-70.828,26.154  c-0.228-0.019-0.457-0.035-0.689-0.035H63.603c-26.168,0-47.458,21.29-47.458,47.458v43.802C6.724,300.298,0,309.398,0,320.043  c0,9.56,7.482,39.655,24.87,39.655c17.388,0,24.87-30.096,24.87-39.655c0-10.814-6.938-20.032-16.595-23.45v-43.64  c0-16.795,13.663-30.458,30.458-30.458h12.861c-14.25,18.607-22.74,41.895-22.74,67.141v148.593  c0,16.291,13.254,29.545,29.545,29.545h11.575c16.292,0,29.545-13.254,29.545-29.545v-56.827c0.014-0.201,0.021-0.404,0.021-0.609  c0-7.243,5.862-13.598,12.546-13.598h1.052c6.8,0,12.545,5.986,12.545,13.071v59.454c0,16.291,13.254,29.545,29.545,29.545h11.575  c16.292,0,29.546-13.254,29.546-29.545v-72.579h30.807v71.088c0,16.291,13.254,29.545,29.546,29.545h11.575  c16.292,0,29.545-13.254,29.545-29.545v-59.983c0.014-0.201,0.022-0.404,0.022-0.609c0-7.244,5.863-13.599,12.546-13.599h11.575  c6.8,0,12.545,5.986,12.545,13.072v62.61c0,16.291,13.254,29.545,29.545,29.545h11.575c16.292,0,29.545-13.254,29.545-29.545  V256.247c14.976-3.709,26.113-17.257,26.113-33.363V167.68c3.378,1.482,6.712,2.233,9.989,2.233c1.879,0,3.741-0.245,5.582-0.734  c14.867-3.956,20.249-22.301,20.813-24.379C493.358,141.807,492.477,138.608,490.245,136.454z M24.87,342.072  C21.5,338.467,17,326.285,17,320.043c0-4.34,3.531-7.871,7.87-7.871c4.339,0,7.87,3.531,7.87,7.871  C32.74,326.285,28.24,338.467,24.87,342.072z M358.186,63.949c44.65,0,80.975,36.139,80.975,80.559v21.175  c-21.713-17.893-50.231-27.917-80.536-27.917c-30.789,0-59.614,10.282-81.414,28.638v-21.895  C277.21,100.088,313.536,63.949,358.186,63.949z M259.477,145.561c-5.356,5.355-10.14,7.975-13.134,7.194  c-2.869-0.751-5.408-4.527-7.061-7.963l23.547-22.721c-1.71,7.207-2.619,14.717-2.619,22.437v0.405  C259.957,145.113,259.711,145.327,259.477,145.561z M104.091,218.029c16.081-13.511,36.762-21.653,59.298-21.653h18.432  c-0.665,35.414-8.666,69.743-23.391,69.743C136.864,266.119,104.091,243.871,104.091,218.029z M204.221,439.72  c0,6.917-5.628,12.545-12.546,12.545h-11.575c-6.917,0-12.545-5.628-12.545-12.545v-59.454c0-4.703-1.162-9.156-3.195-13.125h39.861  V439.72z M400.502,452.265h-11.575c-6.918,0-12.545-5.628-12.545-12.545v-62.61c0-16.582-13.254-30.072-29.545-30.072h-11.575  c-15.784,0-29.154,13.609-29.538,29.88c-0.02,0.236-0.03,0.477-0.03,0.719v60.593c0,6.917-5.628,12.545-12.545,12.545h-11.575  c-6.918,0-12.546-5.628-12.546-12.545V315.551c0-4.694-3.806-8.5-8.5-8.5c-4.694,0-8.5,3.806-8.5,8.5v34.59H136.853l-0.004,0.054  c-15.782,0.002-29.046,13.609-29.429,29.879c-0.02,0.236-0.03,0.477-0.03,0.719v57.436c0,6.917-5.628,12.545-12.545,12.545H83.27  c-6.917,0-12.545-5.628-12.545-12.545V289.636c0-21.009,6.941-40.415,18.632-56.025c7.672,30.577,43.512,49.508,69.074,49.508  c35.072,0,39.912-61.207,40.395-86.743h61.385v26.508c0,18.953,15.419,34.373,34.372,34.373h118.465V439.72  C413.047,446.637,407.419,452.265,400.502,452.265z M421.789,240.257H294.582c-9.579,0-17.372-7.794-17.372-17.373v-32.73  c0.221-0.203,0.434-0.419,0.636-0.65c11.178-12.776,25.753-22.391,42.252-28.23v25.339c0,4.694,3.806,8.5,8.5,8.5  c4.694,0,8.5-3.806,8.5-8.5v-29.88c6.98-1.293,14.184-1.966,21.526-1.966c7.028,0,13.937,0.618,20.648,1.811v30.035  c0,4.694,3.806,8.5,8.5,8.5s8.5-3.806,8.5-8.5v-25.63c16.459,5.676,31.064,15.085,42.328,27.617  c0.179,0.199,0.368,0.385,0.561,0.564v33.722C439.161,232.463,431.368,240.257,421.789,240.257z M467.36,152.75  c-2.627,0.708-6.634-1.229-11.2-5.335v-2.907c0-6.554-0.657-12.957-1.9-19.151l20.156,19.448  C472.731,148.295,470.159,152.006,467.36,152.75z" fill="#2c3e50"/>
<g>
</g>
<g>
</g>
<g>
</g>
<g>
</g>
<g>
</g>
<g>
</g>
<g>
</g>
<g>
</g>
<g>
</g>
<g>
</g>
<g>
</g>
<g>
</g>
<g>
</g>
<g>
</g>
<g>
</g>
</svg>
