<?xml version="1.0" encoding="iso-8859-1"?>
<!-- Generator: Adobe Illustrator 19.0.0, SVG Export Plug-In . SVG Version: 6.00 Build 0)  -->
<svg xmlns="http://www.w3.org/2000/svg" xmlns:xlink="http://www.w3.org/1999/xlink" version="1.1" id="Layer_1" x="0px" y="0px" viewBox="0 0 512 512" style="enable-background:new 0 0 512 512;" xml:space="preserve" width="512px" height="512px">
<g>
	<g>
		<g>
			<path d="M88.075,364.107c-13.155,0-23.858,10.701-23.858,23.857c0,13.155,10.703,23.857,23.858,23.857     c13.155,0,23.857-10.701,23.857-23.857C111.932,374.809,101.23,364.107,88.075,364.107z M88.075,396.098     c-4.486,0-8.136-3.649-8.136-8.135s3.649-8.135,8.136-8.135c4.485,0,8.135,3.649,8.135,8.135S92.561,396.098,88.075,396.098z" fill="#2c3e50"/>
			<path d="M168.229,364.107c-13.155,0-23.857,10.701-23.857,23.857c0,13.155,10.701,23.857,23.857,23.857     c13.155,0,23.857-10.701,23.857-23.857C192.086,374.809,181.385,364.107,168.229,364.107z M168.229,396.098     c-4.485,0-8.135-3.649-8.135-8.135s3.649-8.135,8.135-8.135s8.135,3.649,8.135,8.135S172.714,396.098,168.229,396.098z" fill="#2c3e50"/>
			<path d="M168.229,340.114c-16.762,0-31.528,8.67-40.077,21.754c-8.549-13.084-23.315-21.754-40.077-21.754     c-26.385,0-47.851,21.466-47.851,47.851s21.466,47.851,47.851,47.851c16.762,0,31.528-8.67,40.077-21.754     c8.549,13.084,23.315,21.754,40.077,21.754c26.385,0,47.85-21.466,47.85-47.851C216.079,361.58,194.614,340.114,168.229,340.114z      M88.075,420.092c-17.716,0-32.129-14.413-32.129-32.129c0-17.716,14.413-32.129,32.129-32.129     c17.715,0,32.128,14.413,32.128,32.129C120.203,405.679,105.791,420.092,88.075,420.092z M168.229,420.092     c-17.715,0-32.128-14.413-32.128-32.129c0-17.716,14.413-32.129,32.128-32.129s32.128,14.413,32.128,32.129     C200.357,405.679,185.944,420.092,168.229,420.092z" fill="#2c3e50"/>
			<path d="M416.163,364.107c-13.155,0-23.858,10.701-23.858,23.857c0,13.155,10.703,23.857,23.858,23.857     c13.155,0,23.857-10.701,23.857-23.857C440.02,374.809,429.319,364.107,416.163,364.107z M416.163,396.098     c-4.486,0-8.136-3.649-8.136-8.135s3.649-8.135,8.136-8.135c4.485,0,8.135,3.649,8.135,8.135S420.648,396.098,416.163,396.098z" fill="#2c3e50"/>
			<path d="M416.163,340.114c-26.385,0-47.851,21.466-47.851,47.851s21.466,47.851,47.851,47.851     c26.385,0,47.85-21.466,47.85-47.851C464.013,361.58,442.548,340.114,416.163,340.114z M416.163,420.092     c-17.716,0-32.129-14.413-32.129-32.129c0-17.716,14.413-32.129,32.129-32.129c17.715,0,32.128,14.413,32.128,32.129     C448.291,405.679,433.878,420.092,416.163,420.092z" fill="#2c3e50"/>
			<polygon points="0.591,380.39 14.933,380.16 8.515,418.664 24.024,421.249 33.603,363.777 0,363.777    " fill="#2c3e50"/>
			<rect x="0.275" y="340.11" width="47.987" height="15.722" fill="#2c3e50"/>
			<rect x="208.223" y="340.11" width="159.956" height="15.722" fill="#2c3e50"/>
			<path d="M240.348,411.821h119.693v-47.713H240.348V411.821z M256.07,379.829h88.249v16.269H256.07V379.829z" fill="#2c3e50"/>
			<rect x="408.166" y="284.129" width="23.994" height="15.722" fill="#2c3e50"/>
			<rect x="272.202" y="108.178" width="63.978" height="15.722" fill="#2c3e50"/>
			<rect x="272.202" y="132.17" width="15.996" height="15.722" fill="#2c3e50"/>
			<rect x="296.193" y="132.17" width="15.996" height="15.722" fill="#2c3e50"/>
			<rect x="320.185" y="132.17" width="15.996" height="15.722" fill="#2c3e50"/>
			<path d="M368.039,76.184L368.039,76.184H0.412v255.658h367.627V76.184z M352.317,276.131H48.262v15.722h304.056v24.268H16.134     v-24.268h16.133v-15.722H16.134V91.907h336.183V276.131z" fill="#2c3e50"/>
			<path d="M432.022,140.167v-16.133H416.3v16.133h-8.272v-32.129h-15.722v32.129H376.31v191.675h39.852     c30.945,0,56.122,25.176,56.122,56.122v7.861H512V140.167H432.022z M496.278,324.119h-8.272v-16.269h8.272V324.119z      M472.284,228.006v32.129h-56.259V187.88h80.252v72.254h-8.271v-32.129H472.284z M496.278,172.159h-95.974v103.699h95.974v16.269     h-23.994v47.713h23.994v40.263h-8.698c-3.926-35.932-34.456-63.983-71.417-63.983h-24.13V155.889h104.246V172.159z" fill="#2c3e50"/>
		</g>
	</g>
</g>
<g>
</g>
<g>
</g>
<g>
</g>
<g>
</g>
<g>
</g>
<g>
</g>
<g>
</g>
<g>
</g>
<g>
</g>
<g>
</g>
<g>
</g>
<g>
</g>
<g>
</g>
<g>
</g>
<g>
</g>
</svg>
