<?xml version="1.0" encoding="iso-8859-1"?>
<!-- Generator: Adobe Illustrator 17.1.0, SVG Export Plug-In . SVG Version: 6.00 Build 0)  -->
<!DOCTYPE svg PUBLIC "-//W3C//DTD SVG 1.1//EN" "http://www.w3.org/Graphics/SVG/1.1/DTD/svg11.dtd">
<svg xmlns="http://www.w3.org/2000/svg" xmlns:xlink="http://www.w3.org/1999/xlink" version="1.1" id="Capa_1" x="0px" y="0px" viewBox="0 0 464.072 464.072" style="enable-background:new 0 0 464.072 464.072;" xml:space="preserve" width="512px" height="512px">
<g>
	<path d="M462.096,246.536c0.216-0.248,0.419-0.503,0.6-0.77c0.01-0.015,0.021-0.028,0.031-0.042   c0.199-0.298,0.371-0.609,0.526-0.925c0.03-0.061,0.057-0.122,0.085-0.183c0.139-0.304,0.263-0.614,0.362-0.93   c0.007-0.023,0.017-0.045,0.024-0.069c0.103-0.338,0.177-0.682,0.234-1.028c0.013-0.077,0.023-0.155,0.034-0.233   c0.048-0.356,0.08-0.714,0.08-1.072v-56.498c0-17.645-14.355-32-32-32h-20.52l-38.346-38.346c1.516-3.151,2.366-6.68,2.366-10.404   c0-13.28-10.804-24.083-24.083-24.083c-5.477,0-10.53,1.841-14.58,4.932c-0.14,0.103-0.278,0.21-0.413,0.324   c-1.217,0.971-2.338,2.057-3.347,3.243l-78.676,77.218l-7.549-24.385c-0.034-0.11-0.07-0.219-0.109-0.327   c-6.033-16.881-21.258-28.671-37.024-28.671H88.01c-17.645,0-32,14.355-32,32v39.75H39.822c-17.645,0-32,14.355-32,32v48   c0,8.934,3.713,17.239,9.961,23.173C6.851,297.438,0,311.977,0,328.094c0,30.894,25.133,56.027,56.027,56.027h279.451   c30.886,0,56.014-25.133,56.014-56.027c0-15.182-6.079-28.964-15.919-39.064v-40.494c0-17.645-14.355-32-32-32h-40.856   l61.334-88.626l24.876,24.876h-13.104c-3.233,0-6.149,1.946-7.389,4.933s-0.56,6.425,1.723,8.715l74.611,74.843l-10.019,10.019   c-3.125,3.124-3.125,8.189,0,11.313c1.562,1.562,3.609,2.343,5.657,2.343s4.095-0.781,5.657-2.343l15.667-15.667   c0.062-0.062,0.114-0.129,0.174-0.192C461.969,246.679,462.033,246.608,462.096,246.536z M359.572,104.035   c0,4.457-3.626,8.083-8.083,8.083s-8.083-3.626-8.083-8.083c0-1.794,0.595-3.448,1.588-4.791l1.84-1.806   c1.318-0.933,2.922-1.487,4.656-1.487C355.946,95.952,359.572,99.578,359.572,104.035z M233.524,152.098l19.948,64.438H135.822   v-64.438H233.524z M335.478,368.121H56.027C33.956,368.121,16,350.165,16,328.094c0-22.068,17.956-40.021,40.027-40.021h279.451   c22.064,0,40.014,17.953,40.014,40.021C375.492,350.165,357.542,368.121,335.478,368.121z M356.9,239.702h-13.408   c-4.418,0-8,3.582-8,8s3.582,8,8,8h16.08v21.828c-7.303-3.495-15.473-5.457-24.095-5.457H56.027c-8.771,0-17.075,2.03-24.475,5.638   c-4.759-2.886-7.73-8.034-7.73-13.676v-48c0-8.822,7.178-16,16-16H64.01c4.418,0,8-3.582,8-8v-47.75c0-8.822,7.178-16,16-16   h121.782c5.639,0,11.374,2.997,15.79,7.813h-94.777c-6.056,0-10.982,4.926-10.982,10.982v77.456c0,4.418,3.582,8,8,8h136.439   c0.033,0,0.065,0,0.098,0h23.07c0.004,0,0.009,0.001,0.013,0.001c0.005,0,0.011-0.001,0.016-0.001h56.112   C349.13,232.535,354.031,235.387,356.9,239.702z M270.22,216.535l-10.424-33.673l69.895-68.6   c2.961,6.286,8.561,11.088,15.364,12.976l-61.798,89.296H270.22z M432.072,168.785c8.822,0,16,7.178,16,16v37.144l-52.979-53.144   H432.072z" fill="#2c3e50"/>
	<path d="M71.527,320.097c-4.418,0-8,3.582-8,8c0,4.136-3.364,7.5-7.5,7.5s-7.5-3.364-7.5-7.5s3.364-7.5,7.5-7.5   c4.418,0,8-3.582,8-8s-3.582-8-8-8c-12.958,0-23.5,10.542-23.5,23.5s10.542,23.5,23.5,23.5s23.5-10.542,23.5-23.5   C79.527,323.678,75.945,320.097,71.527,320.097z" fill="#2c3e50"/>
	<path d="M127.274,320.097c-4.418,0-8,3.582-8,8c0,4.136-3.364,7.5-7.5,7.5s-7.5-3.364-7.5-7.5s3.364-7.5,7.5-7.5   c4.418,0,8-3.582,8-8s-3.582-8-8-8c-12.958,0-23.5,10.542-23.5,23.5s10.542,23.5,23.5,23.5s23.5-10.542,23.5-23.5   C135.274,323.678,131.692,320.097,127.274,320.097z" fill="#2c3e50"/>
	<path d="M183.465,320.097c-4.418,0-8,3.582-8,8c0,4.136-3.364,7.5-7.5,7.5s-7.5-3.364-7.5-7.5s3.364-7.5,7.5-7.5   c4.418,0,8-3.582,8-8s-3.582-8-8-8c-12.958,0-23.5,10.542-23.5,23.5s10.542,23.5,23.5,23.5s23.5-10.542,23.5-23.5   C191.465,323.678,187.884,320.097,183.465,320.097z" fill="#2c3e50"/>
	<path d="M239.212,320.097c-4.418,0-8,3.582-8,8c0,4.136-3.364,7.5-7.5,7.5s-7.5-3.364-7.5-7.5s3.364-7.5,7.5-7.5   c4.418,0,8-3.582,8-8s-3.582-8-8-8c-12.958,0-23.5,10.542-23.5,23.5s10.542,23.5,23.5,23.5s23.5-10.542,23.5-23.5   C247.212,323.678,243.63,320.097,239.212,320.097z" fill="#2c3e50"/>
	<path d="M295.545,320.097c-4.418,0-8,3.582-8,8c0,4.136-3.364,7.5-7.5,7.5s-7.5-3.364-7.5-7.5s3.364-7.5,7.5-7.5   c4.418,0,8-3.582,8-8s-3.582-8-8-8c-12.958,0-23.5,10.542-23.5,23.5s10.542,23.5,23.5,23.5s23.5-10.542,23.5-23.5   C303.545,323.678,299.963,320.097,295.545,320.097z" fill="#2c3e50"/>
	<path d="M351.524,320.097c-4.418,0-8,3.582-8,8c0,4.136-3.364,7.5-7.5,7.5s-7.5-3.364-7.5-7.5s3.364-7.5,7.5-7.5   c4.418,0,8-3.582,8-8s-3.582-8-8-8c-12.958,0-23.5,10.542-23.5,23.5s10.542,23.5,23.5,23.5s23.5-10.542,23.5-23.5   C359.524,323.678,355.942,320.097,351.524,320.097z" fill="#2c3e50"/>
</g>
<g>
</g>
<g>
</g>
<g>
</g>
<g>
</g>
<g>
</g>
<g>
</g>
<g>
</g>
<g>
</g>
<g>
</g>
<g>
</g>
<g>
</g>
<g>
</g>
<g>
</g>
<g>
</g>
<g>
</g>
</svg>
