<?xml version="1.0" encoding="iso-8859-1"?>
<!-- Generator: Adobe Illustrator 18.1.1, SVG Export Plug-In . SVG Version: 6.00 Build 0)  -->
<svg xmlns="http://www.w3.org/2000/svg" xmlns:xlink="http://www.w3.org/1999/xlink" version="1.1" id="Capa_1" x="0px" y="0px" viewBox="0 0 60.056 60.056" style="enable-background:new 0 0 60.056 60.056;" xml:space="preserve" width="512px" height="512px">
<g>
	<path d="M4.666,47.907h9.36c2.573,0,4.666-2.078,4.666-4.632V16.657c0-2.554-2.093-4.632-4.666-4.632h-9.36   C2.093,12.025,0,14.103,0,16.657v26.617C0,45.829,2.093,47.907,4.666,47.907z M2.124,16.657c0-1.383,1.141-2.507,2.542-2.507h9.36   c1.402,0,2.544,1.124,2.544,2.507v26.617c0,1.382-1.142,2.507-2.544,2.507h-9.36c-1.401,0-2.542-1.125-2.542-2.507V16.657z    M39.951,43.4V27.5c0-2.555-2.093-4.633-4.666-4.633h-10.45c-2.573,0-4.666,2.078-4.666,4.633v15.899   c0,2.554,2.093,4.632,4.666,4.632h10.45C37.859,48.031,39.951,45.953,39.951,43.4z M22.293,43.4V27.5   c0-1.383,1.141-2.508,2.542-2.508h10.45c1.402,0,2.544,1.125,2.544,2.508v15.899c0,1.383-1.142,2.507-2.544,2.507h-10.45   C23.434,45.906,22.293,44.782,22.293,43.4z M55.39,12.026h-9.36c-2.573,0-4.666,2.078-4.666,4.632v26.617   c0,2.554,2.093,4.632,4.666,4.632h9.36c2.573,0,4.666-2.078,4.666-4.632V16.657C60.056,14.104,57.963,12.026,55.39,12.026z    M57.933,43.276c0,1.382-1.141,2.507-2.543,2.507h-9.36c-1.401,0-2.542-1.125-2.542-2.507V16.657c0-1.383,1.141-2.507,2.542-2.507   h9.36c1.402,0,2.543,1.124,2.543,2.507V43.276z M35.846,28.408c0-0.449-0.299-0.812-0.669-0.812H24.621   c-0.369,0-0.669,0.363-0.669,0.812s0.3,0.812,0.669,0.812h10.556C35.547,29.221,35.846,28.858,35.846,28.408z M9.346,42.166   c3.34,0,6.058-2.718,6.058-6.058s-2.718-6.057-6.058-6.057s-6.057,2.717-6.057,6.057S6.006,42.166,9.346,42.166z M9.346,31.142   c2.739,0,4.969,2.228,4.969,4.967s-2.229,4.968-4.969,4.968c-2.739,0-4.967-2.229-4.967-4.968   C4.379,33.368,6.607,31.142,9.346,31.142z M50.709,30.052c-3.341,0-6.057,2.717-6.057,6.057s2.716,6.058,6.057,6.058   c3.34,0,6.058-2.718,6.058-6.058S54.049,30.052,50.709,30.052z M50.709,41.076c-2.739,0-4.968-2.229-4.968-4.968   s2.229-4.967,4.968-4.967c2.738,0,4.968,2.228,4.968,4.967C55.677,38.847,53.448,41.076,50.709,41.076z M9.346,22.198   c-1.529,0-2.773,1.244-2.773,2.773c0,1.53,1.244,2.774,2.773,2.774c1.53,0,2.775-1.244,2.775-2.774   C12.121,23.441,10.876,22.198,9.346,22.198z M9.346,26.996c-1.116,0-2.023-0.908-2.023-2.024s0.907-2.023,2.023-2.023   c1.117,0,2.025,0.907,2.025,2.023C11.371,26.087,10.463,26.996,9.346,26.996z M9.345,21.137c1.53,0,2.775-1.244,2.775-2.774   c0-1.529-1.245-2.773-2.775-2.773c-1.529,0-2.773,1.244-2.773,2.773C6.572,19.893,7.816,21.137,9.345,21.137z M9.345,16.34   c1.117,0,2.025,0.907,2.025,2.023s-0.908,2.025-2.025,2.025c-1.116,0-2.023-0.908-2.023-2.024S8.229,16.34,9.345,16.34z    M50.708,21.137c1.53,0,2.775-1.244,2.775-2.774c0-1.529-1.245-2.773-2.775-2.773c-1.529,0-2.773,1.244-2.773,2.773   C47.935,19.893,49.179,21.137,50.708,21.137z M50.708,16.34c1.117,0,2.025,0.907,2.025,2.023s-0.908,2.025-2.025,2.025   c-1.116,0-2.023-0.908-2.023-2.024S49.592,16.34,50.708,16.34z M50.709,22.198c-1.529,0-2.773,1.244-2.773,2.773   c0,1.53,1.244,2.774,2.773,2.774c1.53,0,2.775-1.244,2.775-2.774C53.485,23.441,52.24,22.198,50.709,22.198z M50.709,26.996   c-1.116,0-2.023-0.908-2.023-2.024s0.907-2.023,2.023-2.023c1.117,0,2.025,0.907,2.025,2.023   C52.735,26.087,51.826,26.996,50.709,26.996z M30.172,32.816c-2.579,0-4.676,2.097-4.676,4.675c0,2.579,2.097,4.676,4.676,4.676   c2.577,0,4.674-2.097,4.674-4.676S32.749,32.816,30.172,32.816z M30.172,41.076c-1.978,0-3.586-1.608-3.586-3.586   c0-1.977,1.608-3.586,3.586-3.586c1.977,0,3.585,1.609,3.585,3.586C33.757,39.468,32.149,41.076,30.172,41.076z" fill="#2c3e50"/>
</g>
<g>
</g>
<g>
</g>
<g>
</g>
<g>
</g>
<g>
</g>
<g>
</g>
<g>
</g>
<g>
</g>
<g>
</g>
<g>
</g>
<g>
</g>
<g>
</g>
<g>
</g>
<g>
</g>
<g>
</g>
</svg>
