<?xml version="1.0" encoding="iso-8859-1"?>
<!-- Generator: Adobe Illustrator 18.0.0, SVG Export Plug-In . SVG Version: 6.00 Build 0)  -->
<!DOCTYPE svg PUBLIC "-//W3C//DTD SVG 1.1//EN" "http://www.w3.org/Graphics/SVG/1.1/DTD/svg11.dtd">
<svg xmlns="http://www.w3.org/2000/svg" xmlns:xlink="http://www.w3.org/1999/xlink" version="1.1" id="Capa_1" x="0px" y="0px" viewBox="0 0 454.981 454.981" style="enable-background:new 0 0 454.981 454.981;" xml:space="preserve" width="512px" height="512px">
<g>
	<path d="M454.516,61.999c-1.314-4.159-5.173-6.987-9.535-6.987h-78.721c-30.248-26.077-68.63-41.831-108.52-44.465   c-66.806-4.413-132.59,4.953-195.513,27.834L6.585,58.614c-5.19,1.887-7.868,7.625-5.98,12.815   c1.478,4.063,5.313,6.586,9.399,6.585c1.134,0,2.289-0.195,3.417-0.605l55.641-20.233c60.3-21.927,123.34-30.902,187.36-26.674   c27.073,1.788,53.363,10.36,76.273,24.601c-4.911,0.635-8.709,4.823-8.709,9.907c0,5.523,4.477,10,10,10h79.35l-15.861,11.137   c-15.324,10.758-34.976,13.361-52.571,6.963c-5.188-1.887-10.929,0.79-12.815,5.98c-1.887,5.19,0.79,10.928,5.98,12.815   c8.58,3.12,17.521,4.653,26.419,4.653c4.845,0,9.677-0.458,14.43-1.359L366.63,363.7c-0.014,0.282-0.047,0.564-0.066,0.846   c-16.095-2.402-32.409,4.676-41.567,18.401c-3.065,4.594-1.826,10.803,2.768,13.869c1.706,1.138,3.634,1.683,5.541,1.683   c3.23,0,6.4-1.562,8.328-4.45c4.281-6.417,11.523-10.084,19.022-9.968c-5.487,9.587-14.217,16.836-24.679,20.444l-8.813,3.039   c-1.383,0.477-2.797,0.814-4.222,1.028l-10.755-43.019c-1.34-5.358-6.772-8.616-12.127-7.276   c-5.358,1.339-8.616,6.769-7.276,12.127l7.843,31.373l-8.121-4.602c-6.051-3.429-9.081-10.29-7.54-17.072   c2.563-11.278,1.872-22.999-2-33.897l-22.122-62.27c2.573,0.442,5.191,0.771,7.862,0.953l45.102,3.07   c0.231,0.016,0.461,0.024,0.689,0.024c5.213,0,9.607-4.043,9.967-9.321c0.375-5.51-3.788-10.281-9.298-10.656l-45.102-3.07   c-28.993-1.974-43.009-23.552-46.202-41.432c-3.193-17.879,2.487-42.976,29.004-54.863l40.213-18.026   c5.04-2.259,7.293-8.176,5.034-13.216c-2.259-5.039-8.173-7.294-13.216-5.034l-40.212,18.026   c-12.974,5.816-23.437,14.674-30.67,25.856c-17.895,4.933-89.625,26.675-138.661,70.263c-4.128,3.669-4.5,9.99-0.831,14.118   c1.976,2.223,4.721,3.357,7.478,3.356c2.363,0,4.735-0.833,6.64-2.526c36.535-32.476,88.438-52.44,115.781-61.367   c-1.734,8.768-1.853,17.95-0.249,26.93c1.091,6.112,2.971,12.034,5.524,17.601c-3.707,10.943-15.531,44.317-33.214,79.696   c-27.718,55.457-57.018,90.688-84.731,101.885c-5.121,2.069-7.595,7.897-5.526,13.018c1.573,3.893,5.319,6.257,9.275,6.257   c1.247,0,2.515-0.235,3.743-0.731c62.573-25.281,108.396-135.7,124.51-179.771c0.309,0.309,0.611,0.626,0.925,0.928   c3.595,3.461,7.526,6.473,11.741,9.027l27.7,77.972c2.6,7.32,3.065,15.194,1.343,22.769c-3.512,15.456,3.393,31.09,17.182,38.904   l15.127,8.572c6.662,3.775,14.122,5.698,21.623,5.698c4.813,0,9.644-0.792,14.289-2.394l8.813-3.039   c15.408-5.313,28.219-16.104,36.074-30.385c4.768-8.669,7.546-18.475,8.036-28.357l12.679-256.391   c3.339-1.679,6.579-3.601,9.683-5.781l41.76-29.321C454.297,70.689,455.83,66.158,454.516,61.999z" fill="#2c3e50"/>
	<path d="M346.052,211.194c1.975,2.194,4.7,3.311,7.437,3.311c2.383,0,4.775-0.847,6.686-2.567   c4.105-3.695,4.438-10.018,0.744-14.123l-13.499-14.999c-3.694-4.105-10.017-4.438-14.123-0.744s-4.438,10.018-0.744,14.123   L346.052,211.194z" fill="#2c3e50"/>
</g>
<g>
</g>
<g>
</g>
<g>
</g>
<g>
</g>
<g>
</g>
<g>
</g>
<g>
</g>
<g>
</g>
<g>
</g>
<g>
</g>
<g>
</g>
<g>
</g>
<g>
</g>
<g>
</g>
<g>
</g>
</svg>
