<?xml version="1.0" encoding="iso-8859-1"?>
<!-- Generator: Adobe Illustrator 19.0.0, SVG Export Plug-In . SVG Version: 6.00 Build 0)  -->
<svg xmlns="http://www.w3.org/2000/svg" xmlns:xlink="http://www.w3.org/1999/xlink" version="1.1" id="Layer_1" x="0px" y="0px" viewBox="0 0 512 512" style="enable-background:new 0 0 512 512;" xml:space="preserve" width="512px" height="512px">
<g>
	<g>
		<path d="M511.745,142.997L477.612,6.464c-0.95-3.799-4.362-6.464-8.279-6.464H42.667c-3.917,0-7.329,2.665-8.279,6.464    L0.255,142.997c-0.637,2.549-0.065,5.25,1.554,7.321c1.617,2.072,4.098,3.282,6.725,3.282h25.6v349.866    c0,4.713,3.821,8.533,8.533,8.533H76.8h59.733H179.2h153.6h42.667h59.733h34.133c4.713,0,8.533-3.821,8.533-8.533V153.6h25.6    c2.627,0,5.108-1.21,6.725-3.282C511.81,148.247,512.382,145.546,511.745,142.997z M128,494.933H85.334V379.664    c0-11.725,9.571-21.265,21.333-21.265S128,367.939,128,379.664V494.933z M324.266,494.933H187.734v-68.266    c0-37.643,30.625-68.266,68.266-68.266s68.266,30.624,68.266,68.266V494.933z M426.666,494.933H384V379.664    c0-11.725,9.571-21.265,21.333-21.265c11.763,0,21.333,9.54,21.333,21.265V494.933z M460.799,494.933h-17.067V379.664    c0-21.136-17.227-38.331-38.4-38.331s-38.4,17.195-38.4,38.331v115.268h-25.6v-68.266c0-47.053-38.281-85.333-85.333-85.333    s-85.333,38.28-85.333,85.333v68.266h-25.6V379.664c0-21.136-17.227-38.331-38.4-38.331s-38.4,17.195-38.4,38.331v115.268H51.201    V153.6h409.599V494.933z M469.333,136.534H42.667H19.463L49.33,17.067h413.34l29.867,119.466H469.333z" fill="#2c3e50"/>
	</g>
</g>
<g>
	<g>
		<path d="M170.667,170.667H76.8c-4.713,0-8.533,3.821-8.533,8.533v51.2c0,4.713,3.821,8.533,8.533,8.533h93.866    c4.713,0,8.533-3.821,8.533-8.533v-51.2C179.2,174.488,175.379,170.667,170.667,170.667z M162.133,221.867h-76.8v-34.133h76.8    V221.867z" fill="#2c3e50"/>
	</g>
</g>
<g>
	<g>
		<path d="M170.667,256H76.8c-4.713,0-8.533,3.821-8.533,8.533v51.2c0,4.713,3.821,8.533,8.533,8.533h93.866    c4.713,0,8.533-3.821,8.533-8.533v-51.2C179.2,259.821,175.379,256,170.667,256z M162.133,307.2h-76.8v-34.133h76.8V307.2z" fill="#2c3e50"/>
	</g>
</g>
<g>
	<g>
		<path d="M435.2,170.667h-93.866c-4.713,0-8.533,3.821-8.533,8.533v51.2c0,4.713,3.821,8.533,8.533,8.533H435.2    c4.713,0,8.533-3.821,8.533-8.533v-51.2C443.733,174.488,439.912,170.667,435.2,170.667z M426.666,221.867h-76.8v-34.133h76.8    V221.867z" fill="#2c3e50"/>
	</g>
</g>
<g>
	<g>
		<path d="M435.2,256h-93.866c-4.713,0-8.533,3.821-8.533,8.533v51.2c0,4.713,3.821,8.533,8.533,8.533H435.2    c4.713,0,8.533-3.821,8.533-8.533v-51.2C443.733,259.821,439.912,256,435.2,256z M426.666,307.2h-76.8v-34.133h76.8V307.2z" fill="#2c3e50"/>
	</g>
</g>
<g>
	<g>
		<path d="M307.2,256H204.8c-4.713,0-8.533,3.821-8.533,8.533v51.2c0,4.713,3.821,8.533,8.533,8.533h102.4    c4.713,0,8.533-3.821,8.533-8.533v-51.2C315.733,259.821,311.912,256,307.2,256z M298.667,307.2h-85.333v-34.133h85.333V307.2z" fill="#2c3e50"/>
	</g>
</g>
<g>
	<g>
		<path d="M307.2,170.667H204.8c-4.713,0-8.533,3.821-8.533,8.533v51.2c0,4.713,3.821,8.533,8.533,8.533h102.4    c4.713,0,8.533-3.821,8.533-8.533v-51.2C315.733,174.488,311.912,170.667,307.2,170.667z M298.667,221.867h-85.333v-34.133h85.333    V221.867z" fill="#2c3e50"/>
	</g>
</g>
<g>
</g>
<g>
</g>
<g>
</g>
<g>
</g>
<g>
</g>
<g>
</g>
<g>
</g>
<g>
</g>
<g>
</g>
<g>
</g>
<g>
</g>
<g>
</g>
<g>
</g>
<g>
</g>
<g>
</g>
</svg>
