<?xml version="1.0" encoding="iso-8859-1"?>
<!-- Generator: Adobe Illustrator 17.1.0, SVG Export Plug-In . SVG Version: 6.00 Build 0)  -->
<!DOCTYPE svg PUBLIC "-//W3C//DTD SVG 1.1//EN" "http://www.w3.org/Graphics/SVG/1.1/DTD/svg11.dtd">
<svg xmlns="http://www.w3.org/2000/svg" xmlns:xlink="http://www.w3.org/1999/xlink" version="1.1" id="Capa_1" x="0px" y="0px" viewBox="0 0 434.516 434.516" style="enable-background:new 0 0 434.516 434.516;" xml:space="preserve" width="512px" height="512px">
<g>
	<path d="M232.152,345.229c-14.278,0-25.894,11.616-25.894,25.893c0,4.142,3.358,7.5,7.5,7.5s7.5-3.358,7.5-7.5   c0-6.006,4.887-10.893,10.894-10.893s10.894,4.887,10.894,10.893c0,6.007-4.887,10.894-10.894,10.894c-4.142,0-7.5,3.358-7.5,7.5   s3.358,7.5,7.5,7.5c14.278,0,25.894-11.616,25.894-25.894C258.045,356.845,246.43,345.229,232.152,345.229z" fill="#2c3e50"/>
	<path d="M385.881,261.664l-109.757,63.859c-11.408-11.004-26.907-17.794-43.972-17.794c-6.217,0-12.221,0.915-17.902,2.59   L102.915,113.784c-4.897-8.482-12.804-14.549-22.264-17.084c-9.461-2.537-19.342-1.234-27.823,3.663   c-8.482,4.897-14.549,12.804-17.084,22.264c-2.535,9.46-1.234,19.341,3.663,27.823l12.99-7.5   c-5.974-10.346-2.416-23.624,7.931-29.597c10.346-5.971,23.624-2.416,29.566,7.877l110.499,195.062   c-18.895,10.987-31.636,31.442-31.636,54.829c0,34.955,28.438,63.394,63.394,63.394s63.394-28.438,63.394-63.394   c0-12.434-3.612-24.033-9.822-33.831l107.701-62.662L385.881,261.664z M232.152,419.516c-26.684,0-48.394-21.709-48.394-48.394   s21.709-48.393,48.394-48.393s48.394,21.709,48.394,48.393S258.836,419.516,232.152,419.516z" fill="#2c3e50"/>
	<path d="M268.316,239.064c1.389,2.406,3.91,3.751,6.502,3.751c1.272,0,2.562-0.324,3.743-1.006l57.333-33.102   c3.587-2.071,4.816-6.658,2.745-10.245s-6.658-4.816-10.245-2.745l-57.333,33.102C267.474,230.89,266.245,235.477,268.316,239.064z   " fill="#2c3e50"/>
	<path d="M224.074,162.433c1.389,2.406,3.91,3.751,6.502,3.751c1.272,0,2.562-0.324,3.743-1.006l57.334-33.102   c3.587-2.071,4.816-6.658,2.745-10.245c-2.071-3.587-6.658-4.817-10.245-2.745l-57.334,33.102   C223.231,154.259,222.002,158.846,224.074,162.433z" fill="#2c3e50"/>
	<path d="M149.854,80.803L254.318,20.49l36.743,63.64l-48.985,28.281l-48.985,28.281l-17.212-29.812   c-2.071-3.587-6.658-4.817-10.245-2.745c-3.587,2.071-4.816,6.658-2.745,10.245l17.212,29.812l0,0l44.243,76.631l0,0l51.743,89.621   l123.95-71.563l-44.243-76.63h0l-44.243-76.631l0,0L259.809,0L142.354,67.813c-3.587,2.071-4.816,6.658-2.745,10.245   S146.267,82.874,149.854,80.803z M342.804,173.751l36.743,63.64l-97.969,56.563l-36.743-63.64l48.985-28.281L342.804,173.751z    M298.561,97.121l36.743,63.641l-48.985,28.281l-48.985,28.281l-36.743-63.641l48.985-28.281L298.561,97.121z" fill="#2c3e50"/>
	<path d="M186.333,89.554c1.272,0,2.562-0.324,3.743-1.006l57.333-33.102c3.587-2.071,4.816-6.658,2.745-10.245   c-2.071-3.588-6.658-4.816-10.245-2.745l-57.333,33.102c-3.587,2.071-4.816,6.658-2.745,10.245   C181.22,88.209,183.741,89.554,186.333,89.554z" fill="#2c3e50"/>
</g>
<g>
</g>
<g>
</g>
<g>
</g>
<g>
</g>
<g>
</g>
<g>
</g>
<g>
</g>
<g>
</g>
<g>
</g>
<g>
</g>
<g>
</g>
<g>
</g>
<g>
</g>
<g>
</g>
<g>
</g>
</svg>
