<?xml version="1.0" encoding="iso-8859-1"?>
<!-- Generator: Adobe Illustrator 18.1.1, SVG Export Plug-In . SVG Version: 6.00 Build 0)  -->
<svg xmlns="http://www.w3.org/2000/svg" xmlns:xlink="http://www.w3.org/1999/xlink" version="1.1" id="Capa_1" x="0px" y="0px" viewBox="0 0 55.334 55.334" style="enable-background:new 0 0 55.334 55.334;" xml:space="preserve" width="512px" height="512px">
<g>
	<path d="M27.395,24.059c-12.261,0-21.615,1.122-25.54,1.685c3.048-2.427,4.479-4.269,4.479-4.269   c21.714-1.564,43.083,0,43.083,0s2.07,2.506,4.317,4.435c-8.542-1.095-17.68-1.657-26.067-1.657v-0.194H27.395z M9.667,31.059   h2.802l1.539-2.291c-1.462,0.13-2.906,0.289-4.341,0.463V31.059z M43.157,31.059h2.51v-1.81c-1.259-0.147-2.637-0.291-4.121-0.424   L43.157,31.059z M27.396,25.17C11.002,25.17,0,27.059,0,27.059l1,2.458c2.928-0.558,5.821-0.945,8.667-1.288   c1.12-0.135,2.23-0.255,3.331-0.361c5.021-0.481,9.841-0.68,14.296-0.68c5.64,0,10.7,0.302,14.883,0.689   c1.244,0.115,2.411,0.238,3.491,0.363c5.48,0.634,8.75,1.277,8.75,1.277l0.916-2.458C45.138,26.059,35.594,25.17,27.396,25.17z    M38.268,30.187c-0.495-0.042-1.054-0.111-1.663-0.148c-0.609-0.045-1.27-0.082-1.968-0.109c-0.698-0.039-1.435-0.03-2.196-0.048   c-1.524,0.022-3.149,0.099-4.774,0.157c-3.25,0.102-6.5,0.181-8.938,0.292c-2.437,0.098-4.062,0.163-4.062,0.163v0.13   c0,0,1.625,0.065,4.062,0.162c2.438,0.112,5.688,0.191,8.938,0.293c1.625,0.058,3.25,0.135,4.773,0.157   c0.762-0.018,1.498-0.009,2.196-0.048c0.698-0.027,1.358-0.064,1.968-0.109c0.609-0.037,1.168-0.106,1.663-0.148   c0.495-0.043,0.927-0.09,1.282-0.143c0.712-0.089,1.118-0.164,1.118-0.164v-0.13c0,0-0.406-0.075-1.117-0.164   C39.195,30.277,38.763,30.229,38.268,30.187z M38.273,33.736c-0.492-0.068-1.047-0.165-1.653-0.234   c-0.606-0.076-1.264-0.147-1.96-0.21c-0.695-0.075-1.431-0.104-2.191-0.162c-1.523-0.057-3.149-0.065-4.775-0.091   c-3.251-0.066-6.501-0.156-8.941-0.171c-2.439-0.029-4.065-0.048-4.065-0.048l-0.007,0.13c0,0,1.619,0.149,4.049,0.373   c2.428,0.238,5.67,0.485,8.91,0.755c1.62,0.143,3.239,0.304,4.759,0.404c0.762,0.021,1.497,0.068,2.196,0.066   c0.699,0.009,1.36,0.006,1.971-0.007c0.61-0.005,1.172-0.045,1.669-0.062c0.497-0.017,0.93-0.042,1.288-0.077   c0.715-0.052,1.124-0.106,1.124-0.106l0.007-0.13c0,0-0.402-0.096-1.107-0.221C39.193,33.874,38.765,33.805,38.273,33.736z" fill="#2c3e50"/>
</g>
<g>
</g>
<g>
</g>
<g>
</g>
<g>
</g>
<g>
</g>
<g>
</g>
<g>
</g>
<g>
</g>
<g>
</g>
<g>
</g>
<g>
</g>
<g>
</g>
<g>
</g>
<g>
</g>
<g>
</g>
</svg>
