<?xml version="1.0" encoding="iso-8859-1"?>
<!-- Generator: Adobe Illustrator 19.0.0, SVG Export Plug-In . SVG Version: 6.00 Build 0)  -->
<svg xmlns="http://www.w3.org/2000/svg" xmlns:xlink="http://www.w3.org/1999/xlink" version="1.1" id="Layer_1" x="0px" y="0px" viewBox="0 0 512.003 512.003" style="enable-background:new 0 0 512.003 512.003;" xml:space="preserve" width="512px" height="512px">
<g>
	<g>
		<g>
			<path d="M0,371.206c0,39.612,10.513,73.771,28.1,91.366c1.673,1.664,3.849,2.5,6.033,2.5c2.185,0,4.369-0.836,6.033-2.5     c3.337-3.337,3.337-8.738,0-12.066c-13.773-13.781-22.502-42.633-23.066-75.853c35.132-36.796,51.166-89.131,51.166-122.914     c0-8.277-5.982-17.067-17.067-17.067H17.067c0-13.5,16.742-17.067,25.6-17.067c17.075,0,189.355-8.183,196.267-8.525     c9.865,0,16.435,5.129,20.514,10.163l-124.45,15.565c-13.099,2.415-26.001,12.535-34.534,27.085     c-10.803,18.415-13.039,40.602-5.982,61.278l8.533,21.333c1.357,3.396,4.557,5.478,8.414,5.35l221.867-12.809     c2.97-0.171,5.623-1.869,7.023-4.489c1.408-2.611,1.348-5.769-0.145-8.337l-59.358-101.734     c-2.057-5.35-13.252-30.464-42.274-30.464h-0.017c-1.783,0.085-179.183,8.516-195.857,8.516C21.47,200.539,0,212.264,0,234.672     c0,11.085,8.798,17.067,17.067,17.067H51.2c0,32.162-16.725,81.459-48.7,113.434C0.905,366.768,0,368.944,0,371.206z      M116.574,332.464l-6.093-15.206c-5.308-15.565-3.584-32.597,4.702-46.737c5.973-10.172,14.737-17.425,22.409-18.85l10.795-1.348     l35.029,78.285L116.574,332.464z M268.535,235.304l49.886,85.504l-116.762,6.741l-35.558-79.445L268.535,235.304z" fill="#2c3e50"/>
			<path d="M366.925,89.606h26.462c1.118,5.436,3.285,10.479,6.246,14.959l-18.748,18.739c-3.337,3.336-3.337,8.738,0,12.075     c1.664,1.664,3.849,2.5,6.033,2.5c2.185,0,4.369-0.836,6.033-2.5l18.748-18.748c4.48,2.961,9.523,5.137,14.959,6.246v26.462     c0,4.71,3.823,8.533,8.533,8.533c4.719,0,8.533-3.823,8.533-8.533v-26.462c5.436-1.109,10.487-3.285,14.959-6.246l18.748,18.748     c1.673,1.664,3.857,2.5,6.033,2.5c2.185,0,4.369-0.836,6.042-2.5c3.328-3.337,3.328-8.738,0-12.075l-18.756-18.739     c2.97-4.48,5.137-9.523,6.246-14.959l26.47-0.008c4.719,0,8.533-3.814,8.533-8.533c0-4.71-3.823-8.533-8.533-8.533l-26.462,0.009     c-1.109-5.436-3.285-10.479-6.255-14.959l18.756-18.756c3.328-3.345,3.328-8.738,0-12.075c-3.337-3.328-8.738-3.328-12.075,0.009     l-18.739,18.756c-4.471-2.97-9.523-5.137-14.959-6.246l-0.017-26.479c0-4.71-3.823-8.533-8.533-8.533     c-4.71,0.009-8.533,3.831-8.533,8.542l0.017,26.47c-5.427,1.109-10.479,3.277-14.959,6.238l-18.765-18.748     c-3.336-3.328-8.738-3.337-12.075,0.009c-3.328,3.336-3.328,8.738,0.009,12.066l18.756,18.739     c-2.961,4.48-5.128,9.523-6.246,14.967h-26.462c-4.71,0-8.533,3.823-8.533,8.533S362.214,89.606,366.925,89.606z M435.191,55.472     c14.114,0,25.583,11.469,25.6,25.574c0,0.009-0.009,0.017-0.009,0.026s0.009,0.017,0.009,0.026     c-0.017,14.097-11.469,25.557-25.574,25.566h-0.026h-0.026c-14.106-0.009-25.574-11.486-25.574-25.591     C409.591,66.95,421.077,55.472,435.191,55.472z" fill="#2c3e50"/>
			<path d="M502.758,302.964l-101.692,8.508c-13.09,0-22.468,10.274-23.492,11.443c-0.239,0.282-0.461,0.58-0.674,0.887     l-16.538,24.815c-2.389,2.167-7.27,5.504-10.965,5.521l-307.2,17.075c-4.71,0.265-8.311,4.292-8.047,8.994     c0.256,4.702,4.301,8.303,8.994,8.047l306.722-17.067c11.725,0,21.965-9.882,23.1-11.017c0.393-0.393,0.751-0.828,1.067-1.306     l16.683-25.02c1.732-1.758,6.127-5.308,11.059-5.342l89.54-7.458c-27.383,75.665-88.977,119.706-126.054,127.121     c-4.617,0.93-7.62,5.427-6.69,10.044c0.811,4.053,4.369,6.861,8.354,6.861c0.555,0,1.118-0.06,1.69-0.171     c50.406-10.078,117.666-66.415,143.027-150.98c0.811-2.705,0.239-5.632-1.545-7.825     C508.322,303.903,505.566,302.708,502.758,302.964z" fill="#2c3e50"/>
			<path d="M501.948,490.126c-2.219,0.367-4.582,0.555-7.014,0.555c-19.618,0-26.283-11.955-26.496-12.348     c-1.425-2.85-4.352-4.608-7.535-4.651c-3.038,0.043-6.17,1.741-7.671,4.54c-0.282,0.503-6.946,12.459-26.564,12.459     c-19.618,0-26.283-11.955-26.496-12.348c-1.425-2.85-4.352-4.608-7.535-4.651c-3.524,0.043-6.161,1.741-7.671,4.54     c-0.282,0.503-6.946,12.459-26.564,12.459c-19.618,0-26.283-11.955-26.496-12.348c-1.425-2.85-4.352-4.608-7.535-4.651     c-3.388,0.043-6.161,1.741-7.671,4.54c-0.282,0.503-6.946,12.459-26.564,12.459s-26.283-11.955-26.496-12.348     c-1.425-2.85-4.352-4.608-7.535-4.651c-3.243,0.043-6.17,1.741-7.671,4.54c-0.282,0.503-6.946,12.459-26.564,12.459     c-19.618,0-26.283-11.955-26.496-12.348c-1.425-2.85-4.352-4.608-7.535-4.651c-3.089,0.043-6.17,1.741-7.671,4.54     c-0.282,0.503-6.946,12.459-26.564,12.459c-19.618,0-26.283-11.955-26.496-12.348c-1.425-2.85-4.352-4.608-7.535-4.651     c-2.953,0.043-6.17,1.741-7.672,4.54c-0.282,0.503-6.946,12.459-26.564,12.459c-19.618,0-26.283-11.955-26.496-12.348     c-1.425-2.85-4.352-4.608-7.535-4.651c-3.439,0.043-6.161,1.741-7.672,4.54c-0.282,0.503-6.946,12.459-26.564,12.459     c-2.449,0-4.608-0.179-6.972-0.58c-4.676-0.794-9.054,2.347-9.839,6.989c-0.785,4.651,2.338,9.054,6.989,9.839     c3.302,0.555,6.426,0.819,9.822,0.819c16.888,0,27.733-6.391,34.133-12.254c6.4,5.862,17.254,12.254,34.133,12.254     c16.888,0,27.733-6.391,34.133-12.254c6.4,5.862,17.254,12.254,34.133,12.254c16.887,0,27.733-6.391,34.133-12.254     c6.4,5.862,17.254,12.254,34.133,12.254c16.887,0,27.733-6.391,34.133-12.254c6.4,5.862,17.254,12.254,34.133,12.254     c16.887,0,27.733-6.391,34.133-12.254c6.4,5.862,17.254,12.254,34.133,12.254c16.887,0,27.733-6.391,34.133-12.254     c6.4,5.862,17.254,12.254,34.133,12.254c16.888,0,27.733-6.391,34.133-12.254c6.4,5.862,17.254,12.254,34.133,12.254     c3.362,0,6.656-0.265,9.796-0.777c4.651-0.768,7.791-5.163,7.023-9.813C510.993,492.507,506.684,489.384,501.948,490.126z" fill="#2c3e50"/>
		</g>
	</g>
</g>
<g>
</g>
<g>
</g>
<g>
</g>
<g>
</g>
<g>
</g>
<g>
</g>
<g>
</g>
<g>
</g>
<g>
</g>
<g>
</g>
<g>
</g>
<g>
</g>
<g>
</g>
<g>
</g>
<g>
</g>
</svg>
