<?xml version="1.0" encoding="iso-8859-1"?>
<!-- Generator: Adobe Illustrator 19.0.0, SVG Export Plug-In . SVG Version: 6.00 Build 0)  -->
<svg xmlns="http://www.w3.org/2000/svg" xmlns:xlink="http://www.w3.org/1999/xlink" version="1.1" id="Layer_1" x="0px" y="0px" viewBox="0 0 511.999 511.999" style="enable-background:new 0 0 511.999 511.999;" xml:space="preserve" width="512px" height="512px">
<g>
	<g>
		<g>
			<polygon points="312.581,139.782 328.24,139.782 328.24,91.878 288.352,91.878 288.352,107.538 312.581,107.538 312.581,115.923      264.307,115.923 264.307,131.582 312.581,131.582    " fill="#2c3e50"/>
			<path d="M416.007,228.132c-10.444,0-20.501,1.683-29.922,4.781l-25.017-60.756l20.286-40.574h19.206v-15.659h-64.119v15.659     h27.406l-16.215,32.43h-99.356c-33.294,0-64.742,8.362-90.921,23.884c-12.066-1.374-21.473-11.64-21.473-24.068l-0.187-0.185     h52.469c10.946,0,19.852-8.906,19.852-19.852s-8.905-19.852-19.852-19.852H91.986c-10.946,0-19.853,8.906-19.853,19.852     s8.906,19.852,19.853,19.852h28.396l-0.159,0.185c0,15.149,8.489,28.351,20.96,35.103c-1.725,1.348-3.422,2.727-5.081,4.147     c-9.235,7.902-17.22,16.777-23.892,26.432c-5.273-0.901-10.69-1.377-16.217-1.377C43.062,228.132,0,271.195,0,324.126     c0,52.931,43.062,95.994,95.993,95.994c41.2,0,76.417-26.092,90.005-62.617l54.387,5.725c0.02,0.004,0.041,0.007,0.062,0.011     v17.176h-16.215v15.659h48.089v-15.659h-16.215V363.24c17.669-3.531,31.159-18.768,32.013-37.253L351.97,191.19l19.69,47.821     c-30.667,16.044-51.648,48.173-51.648,85.116c0,52.931,43.063,95.994,95.994,95.994s95.993-43.063,95.993-95.994     S468.938,228.132,416.007,228.132z M91.986,147.983c-2.312,0-4.194-1.881-4.194-4.193s1.881-4.193,4.194-4.193h96.179     c2.311,0,4.193,1.881,4.193,4.193s-1.881,4.193-4.193,4.193H91.986z M119.372,247.271c22.692,6.917,41.15,23.623,50.436,45.181     l-8.783,0.924c-8.84-18.621-25.447-32.852-45.608-38.515C116.641,252.286,117.958,249.753,119.372,247.271z M88.318,301.54     c-9.401,3.204-16.184,12.115-16.184,22.586c0,12.973,10.41,23.555,23.315,23.846l48.78,5.134     c-9.86,16.349-27.791,27.309-48.236,27.309c-31.038,0-56.289-25.251-56.289-56.289c0-30.33,24.114-55.119,54.176-56.236     C90.707,278.649,88.831,289.918,88.318,301.54z M95.993,315.925c4.521,0,8.2,3.679,8.2,8.2c0,4.521-3.679,8.2-8.2,8.2     c-4.521,0-8.199-3.679-8.199-8.2C87.794,319.604,91.472,315.925,95.993,315.925z M117.456,334.541     c1.535-3.15,2.398-6.683,2.398-10.416c0-3.732-0.863-7.267-2.398-10.416l33.088-3.483c1.134,4.447,1.74,9.103,1.74,13.899     c0,4.796-0.607,9.451-1.74,13.899L117.456,334.541z M109.638,269.517c14.624,3.656,27.001,13.04,34.592,25.628l-40.12,4.223     C104.772,288.962,106.626,278.985,109.638,269.517z M95.993,404.459c-44.295,0-80.334-36.037-80.334-80.334     s36.039-80.335,80.334-80.335c2.501,0,4.972,0.13,7.416,0.356c-1.376,2.662-2.66,5.37-3.855,8.12     c-1.181-0.057-2.368-0.091-3.562-0.091c-39.672,0-71.949,32.276-71.949,71.949s32.276,71.949,71.949,71.949     c28.678,0,53.481-16.868,65.032-41.201l8.783,0.925C157.494,384.388,129.047,404.459,95.993,404.459z M174.631,340.56     l-8.401-0.884c1.109-5.011,1.711-10.21,1.711-15.55s-0.602-10.539-1.711-15.55l8.401-0.884     c1.109,5.306,1.696,10.803,1.696,16.434C176.328,329.757,175.739,335.253,174.631,340.56z M214.126,344.718l-23.854-2.511     c1.121-5.858,1.715-11.901,1.715-18.08s-0.594-12.224-1.715-18.082l23.854-2.511c-3.64,6.015-5.739,13.062-5.739,20.592     S210.486,338.702,214.126,344.718z M256.106,347.05v-22.924h-15.659v22.924c-9.528-3.263-16.4-12.303-16.4-22.924     c0-11.511,8.07-21.164,18.847-23.62l5.715-0.601c13.207,0.18,23.897,10.972,23.897,24.221     C272.507,334.746,265.635,343.785,256.106,347.05z M281.854,302.632c-7.1-11.052-19.493-18.396-33.577-18.396l-62.278,6.512     c-9.842-26.455-31.032-47.432-57.623-56.991c5.182-6.725,11.155-13.005,17.908-18.783c4.779-4.089,9.874-7.843,15.234-11.259     h167.193L281.854,302.632z M336.127,188.057H194.754c16.678-5.501,34.761-8.385,53.523-8.385H340.1L336.127,188.057z      M386.882,275.973l12.873,31.262c-4.336,4.322-7.024,10.298-7.024,16.889c-0.001,13.157,10.703,23.861,23.86,23.861     c13.156,0,23.859-10.704,23.859-23.86c0-13.156-10.704-23.86-23.859-23.86c-0.916,0-1.818,0.057-2.706,0.158l-12.608-30.619     c4.698-1.276,9.635-1.969,14.731-1.969c31.038,0,56.289,25.251,56.289,56.289s-25.251,56.289-56.289,56.289     c-31.038,0-56.29-25.251-56.29-56.289C359.718,303.739,370.612,285.851,386.882,275.973z M408.39,324.126     c0-4.521,3.679-8.2,8.2-8.2c4.521,0,8.199,3.679,8.199,8.2c0,4.521-3.678,8.2-8.199,8.2S408.39,328.647,408.39,324.126z      M416.007,404.459c-44.297,0-80.335-36.039-80.335-80.335c0-30.415,16.99-56.933,41.978-70.568l3.219,7.817     c-21.945,12.336-36.811,35.834-36.811,62.751c0,39.672,32.276,71.949,71.95,71.949c39.673,0,71.949-32.276,71.949-71.949     c0-39.672-32.276-71.949-71.949-71.949c-7.205,0-14.162,1.077-20.731,3.058l-3.211-7.798c7.566-2.367,15.607-3.644,23.942-3.644     c44.296,0,80.334,36.039,80.334,80.335S460.303,404.459,416.007,404.459z" fill="#2c3e50"/>
			<polygon points="240.447,276.036 256.106,276.036 256.106,251.805 272.321,251.805 272.321,236.146 224.232,236.146      224.232,251.805 240.447,251.805    " fill="#2c3e50"/>
		</g>
	</g>
</g>
<g>
</g>
<g>
</g>
<g>
</g>
<g>
</g>
<g>
</g>
<g>
</g>
<g>
</g>
<g>
</g>
<g>
</g>
<g>
</g>
<g>
</g>
<g>
</g>
<g>
</g>
<g>
</g>
<g>
</g>
</svg>
