<?xml version="1.0" encoding="iso-8859-1"?>
<!-- Generator: Adobe Illustrator 19.0.0, SVG Export Plug-In . SVG Version: 6.00 Build 0)  -->
<svg xmlns="http://www.w3.org/2000/svg" xmlns:xlink="http://www.w3.org/1999/xlink" version="1.1" id="Layer_1" x="0px" y="0px" viewBox="0 0 512.001 512.001" style="enable-background:new 0 0 512.001 512.001;" xml:space="preserve" width="512px" height="512px">
<g>
	<g>
		<path d="M408.936,223.647l-14.86-60.119c-3.826-15.473-17.627-26.278-33.564-26.278H207.082c-17.33,0-31.429,14.099-31.429,31.429    v71.395c0,14.58,11.863,26.444,26.446,26.444h173.272c10.703,0,20.626-4.833,27.224-13.261    C409.193,244.829,411.505,234.036,408.936,223.647z M300.472,154.824h60.039c7.836,0,14.623,5.314,16.502,12.921l1.596,6.457    h-78.137V154.824z M193.229,168.678c0-7.639,6.216-13.854,13.854-13.854h75.815v19.378h-89.669V168.678z M388.757,242.422    c-3.244,4.144-8.123,6.52-13.385,6.52H202.099c-4.892,0-8.871-3.979-8.871-8.871v-48.295h189.725l8.92,36.086    C393.137,232.972,392,238.279,388.757,242.422z" fill="#2c3e50"/>
	</g>
</g>
<g>
	<g>
		<path d="M503.212,367.998H488.48v-8.476c0-4.853-3.933-8.788-8.788-8.788s-8.788,3.934-8.788,8.788v8.476h-18.061V267.733    c0-0.743-0.094-1.483-0.28-2.203l-38.449-148.453c-7.626-29.444-34.195-50.01-64.612-50.01H66.743    C29.941,67.067,0,97.009,0,133.811v242.974c0,4.853,3.933,8.788,8.788,8.788h164.774c9.94,34.247,41.57,59.361,78.975,59.361    c37.411,0,69.045-25.114,78.986-59.361h40.482h72.052h26.849v50.573c0,4.853,3.933,8.788,8.788,8.788    c4.854,0,8.788-3.935,8.788-8.788v-50.573h14.733c4.854,0,8.788-3.935,8.788-8.788S508.067,367.998,503.212,367.998z     M32.568,367.999H17.575v-11.422h14.993V367.999z M133.338,367.998H50.143v-203.56c0-5.301,4.313-9.614,9.612-9.614h63.969    c5.301,0,9.614,4.313,9.614,9.614V367.998z M168.657,364.951v3.046h-17.745v-11.413h18.576    C168.945,359.291,168.657,362.088,168.657,364.951z M252.535,427.358c-35.656,0-64.664-29.014-64.664-64.677    c0-2.573,0.163-5.164,0.466-7.721c3.861-8.784,12.632-14.941,22.827-14.941h3.735c-4.027,6.689-6.266,14.466-6.266,22.661    c0,24.208,19.695,43.903,43.903,43.903c24.208,0,43.903-19.695,43.903-43.903c0-8.197-2.239-15.974-6.265-22.661h2.639    c11.882,0,21.834,8.362,24.319,19.507c0.05,1.088,0.082,2.136,0.082,3.154C317.212,398.344,288.199,427.358,252.535,427.358z     M226.208,362.682c0-9.43,4.911-17.947,12.938-22.661h26.78c8.027,4.714,12.938,13.232,12.938,22.661    c0,14.517-11.811,26.328-26.328,26.328S226.208,377.199,226.208,362.682z M326.715,339.012v0.335    c-7.767-10.26-20.073-16.904-33.905-16.904h-81.647c-13.677,0-25.858,6.499-33.638,16.565h-26.614V164.437    c0-14.992-12.197-27.189-27.189-27.189H59.756c-14.992,0-27.188,12.197-27.188,27.189v174.565H17.575V133.811    c0-27.111,22.057-49.168,49.168-49.168h282.759c22.407,0,41.98,15.15,47.597,36.84l38.169,147.369v70.16H326.715z     M435.268,367.998h-63.265h-36.686v-3.046c0-2.709-0.266-5.357-0.752-7.926c-0.021-0.148-0.048-0.292-0.076-0.437h100.78V367.998z    " fill="#2c3e50"/>
	</g>
</g>
<g>
	<g>
		<path d="M69.67,263.769c-4.854,0-8.788,3.935-8.788,8.788v18.78c0,4.853,3.933,8.788,8.788,8.788s8.788-3.934,8.788-8.788v-18.78    C78.458,267.703,74.523,263.769,69.67,263.769z" fill="#2c3e50"/>
	</g>
</g>
<g>
</g>
<g>
</g>
<g>
</g>
<g>
</g>
<g>
</g>
<g>
</g>
<g>
</g>
<g>
</g>
<g>
</g>
<g>
</g>
<g>
</g>
<g>
</g>
<g>
</g>
<g>
</g>
<g>
</g>
</svg>
