<?xml version="1.0" encoding="iso-8859-1"?>
<!-- Generator: Adobe Illustrator 19.0.0, SVG Export Plug-In . SVG Version: 6.00 Build 0)  -->
<svg xmlns="http://www.w3.org/2000/svg" xmlns:xlink="http://www.w3.org/1999/xlink" version="1.1" id="Layer_1" x="0px" y="0px" viewBox="0 0 512 512" style="enable-background:new 0 0 512 512;" xml:space="preserve" width="512px" height="512px">
<g>
	<g>
		<path d="M200.533,34.133h-51.2c-4.713,0-8.533,3.821-8.533,8.533v68.267c0,4.713,3.821,8.533,8.533,8.533h51.2    c4.713,0,8.533-3.821,8.533-8.533V42.667C209.067,37.954,205.246,34.133,200.533,34.133z M192,102.4h-34.133V51.2H192V102.4z" fill="#2c3e50"/>
	</g>
</g>
<g>
	<g>
		<path d="M200.533,153.6h-51.2c-4.713,0-8.533,3.821-8.533,8.533V230.4c0,4.713,3.821,8.533,8.533,8.533h51.2    c4.713,0,8.533-3.821,8.533-8.533v-68.267C209.067,157.421,205.246,153.6,200.533,153.6z M192,221.867h-34.133v-51.2H192V221.867z    " fill="#2c3e50"/>
	</g>
</g>
<g>
	<g>
		<path d="M285.867,34.133h-51.2c-4.713,0-8.533,3.821-8.533,8.533v68.267c0,4.713,3.821,8.533,8.533,8.533h51.2    c4.713,0,8.533-3.821,8.533-8.533V42.667C294.4,37.954,290.579,34.133,285.867,34.133z M277.333,102.4H243.2V51.2h34.133V102.4z" fill="#2c3e50"/>
	</g>
</g>
<g>
	<g>
		<path d="M285.867,153.6h-51.2c-4.713,0-8.533,3.821-8.533,8.533V230.4c0,4.713,3.821,8.533,8.533,8.533h51.2    c4.713,0,8.533-3.821,8.533-8.533v-68.267C294.4,157.421,290.579,153.6,285.867,153.6z M277.333,221.867H243.2v-51.2h34.133    V221.867z" fill="#2c3e50"/>
	</g>
</g>
<g>
	<g>
		<path d="M371.2,34.133H320c-4.713,0-8.533,3.821-8.533,8.533v68.267c0,4.713,3.821,8.533,8.533,8.533h51.2    c4.713,0,8.533-3.821,8.533-8.533V42.667C379.733,37.954,375.913,34.133,371.2,34.133z M362.667,102.4h-34.133V51.2h34.133V102.4z    " fill="#2c3e50"/>
	</g>
</g>
<g>
	<g>
		<path d="M371.2,153.6H320c-4.713,0-8.533,3.821-8.533,8.533V230.4c0,4.713,3.821,8.533,8.533,8.533h51.2    c4.713,0,8.533-3.821,8.533-8.533v-68.267C379.733,157.421,375.913,153.6,371.2,153.6z M362.667,221.867h-34.133v-51.2h34.133    V221.867z" fill="#2c3e50"/>
	</g>
</g>
<g>
	<g>
		<path d="M200.533,273.067h-51.2c-4.713,0-8.533,3.821-8.533,8.533v68.267c0,4.713,3.821,8.533,8.533,8.533h51.2    c4.713,0,8.533-3.821,8.533-8.533V281.6C209.067,276.888,205.246,273.067,200.533,273.067z M192,341.333h-34.133v-51.2H192    V341.333z" fill="#2c3e50"/>
	</g>
</g>
<g>
	<g>
		<path d="M285.867,273.067h-51.2c-4.713,0-8.533,3.821-8.533,8.533v68.267c0,4.713,3.821,8.533,8.533,8.533h51.2    c4.713,0,8.533-3.821,8.533-8.533V281.6C294.4,276.888,290.579,273.067,285.867,273.067z M277.333,341.333H243.2v-51.2h34.133    V341.333z" fill="#2c3e50"/>
	</g>
</g>
<g>
	<g>
		<path d="M371.2,273.067H320c-4.713,0-8.533,3.821-8.533,8.533v68.267c0,4.713,3.821,8.533,8.533,8.533h51.2    c4.713,0,8.533-3.821,8.533-8.533V281.6C379.733,276.888,375.913,273.067,371.2,273.067z M362.667,341.333h-34.133v-51.2h34.133    V341.333z" fill="#2c3e50"/>
	</g>
</g>
<g>
	<g>
		<path d="M439.467,136.533v-17.067h-25.6V8.533c0-4.713-3.821-8.533-8.533-8.533H115.2c-4.713,0-8.533,3.821-8.533,8.533v110.933    H72.533v17.067h34.133v102.4H72.533V256h34.133v247.467c0,4.713,3.821,8.533,8.533,8.533h85.333H320h85.333    c4.713,0,8.533-3.821,8.533-8.533V256h25.6v-17.067h-25.6v-102.4H439.467z M311.467,494.933h-102.4v-102.4h102.4V494.933z     M396.8,119.467v17.067v102.4V256v238.933h-68.267V384c0-4.713-3.821-8.533-8.533-8.533H200.533c-4.713,0-8.533,3.821-8.533,8.533    v110.933h-68.267V17.067H396.8V119.467z" fill="#2c3e50"/>
	</g>
</g>
<g>
</g>
<g>
</g>
<g>
</g>
<g>
</g>
<g>
</g>
<g>
</g>
<g>
</g>
<g>
</g>
<g>
</g>
<g>
</g>
<g>
</g>
<g>
</g>
<g>
</g>
<g>
</g>
<g>
</g>
</svg>
